<svg xmlns="http://www.w3.org/2000/svg">
  <symbol viewBox="0 0 24 24" id="equalizer">
    <path fill="none" d="M0 0h24v24H0z"/>
    <path fill="currentColor" d="M6.17 18a3.001 3.001 0 0 1 5.66 0H22v2H11.83a3.001 3.001 0 0 1-5.66 0H2v-2h4.17zm6-7a3.001 3.001 0 0 1 5.66 0H22v2h-4.17a3.001 3.001 0 0 1-5.66 0H2v-2h10.17zm-6-7a3.001 3.001 0 0 1 5.66 0H22v2H11.83a3.001 3.001 0 0 1-5.66 0H2V4h4.17zM9 6a1 1 0 1 0 0-2 1 1 0 0 0 0 2zm6 7a1 1 0 1 0 0-2 1 1 0 0 0 0 2zm-6 7a1 1 0 1 0 0-2 1 1 0 0 0 0 2z"/>
  </symbol>

  <symbol viewBox="0 0 24 24" id="map-pin">
    <path fill="none" d="M0 0h24v24H0z"/>
    <path fill="currentColor" d="M12 20.9l4.95-4.95a7 7 0 1 0-9.9 0L12 20.9zm0 2.828l-6.364-6.364a9 9 0 1 1 12.728 0L12 23.728zM12 13a2 2 0 1 0 0-4 2 2 0 0 0 0 4zm0 2a4 4 0 1 1 0-8 4 4 0 0 1 0 8z"/>
  </symbol>

  <symbol viewBox="0 0 24 24" id="time">
    <path fill="none" d="M0 0h24v24H0z"/>
    <path fill="currentColor" d="M12 22C6.477 22 2 17.523 2 12S6.477 2 12 2s10 4.477 10 10-4.477 10-10 10zm0-2a8 8 0 1 0 0-16 8 8 0 0 0 0 16zm1-8h4v2h-6V7h2v5z"/>
  </symbol>

  <symbol viewBox="0 0 24 24" id="download">
    <path fill="none" d="M0 0h24v24H0z"/>
    <path fill="currentColor" d="M3 19h18v2H3v-2zm10-5.828L19.071 7.1l1.414 1.414L12 17 3.515 8.515 4.929 7.1 11 13.17V2h2v11.172z"/>
  </symbol>

  <symbol viewBox="0 0 24 24" id="calendar-event">
    <path fill="none" d="M0 0h24v24H0z"/>
    <path fill="currentColor" d="M17 3h4a1 1 0 0 1 1 1v16a1 1 0 0 1-1 1H3a1 1 0 0 1-1-1V4a1 1 0 0 1 1-1h4V1h2v2h6V1h2v2zm3 6V5h-3v2h-2V5H9v2H7V5H4v4h16zm0 2H4v8h16v-8zM6 13h5v4H6v-4z"/>
  </symbol>

  <symbol viewBox="0 0 24 24" id="bookmark">
    <path fill="none" d="M0 0h24v24H0z"/>
    <path fill="currentColor" d="M3 18.5V5a3 3 0 0 1 3-3h14a1 1 0 0 1 1 1v18a1 1 0 0 1-1 1H6.5A3.5 3.5 0 0 1 3 18.5zM19 20v-3H6.5a1.5 1.5 0 0 0 0 3H19zM10 4H6a1 1 0 0 0-1 1v10.337A3.486 3.486 0 0 1 6.5 15H19V4h-2v8l-3.5-2-3.5 2V4z"/>
  </symbol>

  <symbol viewBox="0 0 24 24" id="shield-cross">
    <path fill="none" d="M0 0h24v24H0z"/>
    <path fill="currentColor" d="M3.783 2.826L12 1l8.217 1.826a1 1 0 0 1 .783.976v9.987a6 6 0 0 1-2.672 4.992L12 23l-6.328-4.219A6 6 0 0 1 3 13.79V3.802a1 1 0 0 1 .783-.976zM5 4.604v9.185a4 4 0 0 0 1.781 3.328L12 20.597l5.219-3.48A4 4 0 0 0 19 13.79V4.604L12 3.05 5 4.604zM11 10V7h2v3h3v2h-3v3h-2v-3H8v-2h3z"/>
  </symbol>

  <symbol viewBox="0 0 24 24" id="search-eye">
    <path fill="none" d="M0 0h24v24H0z"/>
    <path fill="currentColor" d="M18.031 16.617l4.283 4.282-1.415 1.415-4.282-4.283A8.96 8.96 0 0 1 11 20c-4.968 0-9-4.032-9-9s4.032-9 9-9 9 4.032 9 9a8.96 8.96 0 0 1-1.969 5.617zm-2.006-.742A6.977 6.977 0 0 0 18 11c0-3.868-3.133-7-7-7-3.868 0-7 3.132-7 7 0 3.867 3.132 7 7 7a6.977 6.977 0 0 0 4.875-1.975l.15-.15zm-3.847-8.699a2 2 0 1 0 2.646 2.646 4 4 0 1 1-2.646-2.646z"/>
  </symbol>

  <symbol viewBox="0 0 24 24" id="pulse">
    <path fill="none" d="M0 0H24V24H0z"/>
    <path fill="currentColor" d="M9 7.539L15 21.539 18.659 13 23 13 23 11 17.341 11 15 16.461 9 2.461 5.341 11 1 11 1 13 6.659 13z"/>
  </symbol>
</svg>
