<svg xmlns="http://www.w3.org/2000/svg">
  <symbol viewBox="0 0 24 24" id="equalizer">
    <path fill="none" d="M0 0h24v24H0z"/>
    <path fill="currentColor" d="M6.17 18a3.001 3.001 0 0 1 5.66 0H22v2H11.83a3.001 3.001 0 0 1-5.66 0H2v-2h4.17zm6-7a3.001 3.001 0 0 1 5.66 0H22v2h-4.17a3.001 3.001 0 0 1-5.66 0H2v-2h10.17zm-6-7a3.001 3.001 0 0 1 5.66 0H22v2H11.83a3.001 3.001 0 0 1-5.66 0H2V4h4.17zM9 6a1 1 0 1 0 0-2 1 1 0 0 0 0 2zm6 7a1 1 0 1 0 0-2 1 1 0 0 0 0 2zm-6 7a1 1 0 1 0 0-2 1 1 0 0 0 0 2z"/>
  </symbol>

  <symbol viewBox="0 0 24 24" id="map-pin">
    <path fill="none" d="M0 0h24v24H0z"/>
    <path fill="currentColor" d="M12 20.9l4.95-4.95a7 7 0 1 0-9.9 0L12 20.9zm0 2.828l-6.364-6.364a9 9 0 1 1 12.728 0L12 23.728zM12 13a2 2 0 1 0 0-4 2 2 0 0 0 0 4zm0 2a4 4 0 1 1 0-8 4 4 0 0 1 0 8z"/>
  </symbol>

  <symbol viewBox="0 0 24 24" id="time">
    <path fill="none" d="M0 0h24v24H0z"/>
    <path fill="currentColor" d="M12 22C6.477 22 2 17.523 2 12S6.477 2 12 2s10 4.477 10 10-4.477 10-10 10zm0-2a8 8 0 1 0 0-16 8 8 0 0 0 0 16zm1-8h4v2h-6V7h2v5z"/>
  </symbol>

  <symbol viewBox="0 0 24 24" id="download">
    <path fill="none" d="M0 0h24v24H0z"/>
    <path fill="currentColor" d="M3 19h18v2H3v-2zm10-5.828L19.071 7.1l1.414 1.414L12 17 3.515 8.515 4.929 7.1 11 13.17V2h2v11.172z"/>
  </symbol>

  <symbol viewBox="0 0 24 24" id="calendar-event">
    <path fill="none" d="M0 0h24v24H0z"/>
    <path fill="currentColor" d="M17 3h4a1 1 0 0 1 1 1v16a1 1 0 0 1-1 1H3a1 1 0 0 1-1-1V4a1 1 0 0 1 1-1h4V1h2v2h6V1h2v2zm3 6V5h-3v2h-2V5H9v2H7V5H4v4h16zm0 2H4v8h16v-8zM6 13h5v4H6v-4z"/>
  </symbol>
</svg>
