<svg xmlns="http://www.w3.org/2000/svg">
  <symbol viewBox="0 0 24 24" id="equalizer">
    <path fill="none" d="M0 0h24v24H0z"/>
    <path fill="currentColor" d="M6.17 18a3.001 3.001 0 0 1 5.66 0H22v2H11.83a3.001 3.001 0 0 1-5.66 0H2v-2h4.17zm6-7a3.001 3.001 0 0 1 5.66 0H22v2h-4.17a3.001 3.001 0 0 1-5.66 0H2v-2h10.17zm-6-7a3.001 3.001 0 0 1 5.66 0H22v2H11.83a3.001 3.001 0 0 1-5.66 0H2V4h4.17zM9 6a1 1 0 1 0 0-2 1 1 0 0 0 0 2zm6 7a1 1 0 1 0 0-2 1 1 0 0 0 0 2zm-6 7a1 1 0 1 0 0-2 1 1 0 0 0 0 2z"/>
  </symbol>

  <symbol viewBox="0 0 24 24" id="map-pin">
    <path fill="none" d="M0 0h24v24H0z"/>
    <path d="M11 17.9381C7.05369 17.446 4 14.0796 4 10C4 5.58172 7.58172 2 12 2C16.4183 2 20 5.58172 20 10C20 14.0796 16.9463 17.446 13 17.9381V20.0116C16.9463 20.1039 20 20.7351 20 21.5C20 22.3284 16.4183 23 12 23C7.58172 23 4 22.3284 4 21.5C4 20.7351 7.05369 20.1039 11 20.0116V17.9381ZM12 16C15.3137 16 18 13.3137 18 10C18 6.68629 15.3137 4 12 4C8.68629 4 6 6.68629 6 10C6 13.3137 8.68629 16 12 16ZM12 12C10.8954 12 10 11.1046 10 10C10 8.89543 10.8954 8 12 8C13.1046 8 14 8.89543 14 10C14 11.1046 13.1046 12 12 12Z" />
  </symbol>

  <symbol viewBox="0 0 24 24" id="time">
    <path fill="none" d="M0 0h24v24H0z"/>
    <path fill="currentColor" d="M12 22C6.477 22 2 17.523 2 12S6.477 2 12 2s10 4.477 10 10-4.477 10-10 10zm0-2a8 8 0 1 0 0-16 8 8 0 0 0 0 16zm1-8h4v2h-6V7h2v5z"/>
  </symbol>

  <symbol viewBox="0 0 24 24" id="download">
    <path fill="none" d="M0 0h24v24H0z"/>
    <path fill="currentColor" d="M3 19h18v2H3v-2zm10-5.828L19.071 7.1l1.414 1.414L12 17 3.515 8.515 4.929 7.1 11 13.17V2h2v11.172z"/>
  </symbol>

  <symbol viewBox="0 0 24 24" id="calendar-event">
    <path fill="none" d="M0 0h24v24H0z"/>
    <path fill="currentColor" d="M17 3h4a1 1 0 0 1 1 1v16a1 1 0 0 1-1 1H3a1 1 0 0 1-1-1V4a1 1 0 0 1 1-1h4V1h2v2h6V1h2v2zm3 6V5h-3v2h-2V5H9v2H7V5H4v4h16zm0 2H4v8h16v-8zM6 13h5v4H6v-4z"/>
  </symbol>

  <symbol viewBox="0 0 24 24" id="bookmark">
    <path fill="none" d="M0 0h24v24H0z"/>
    <path fill="currentColor" d="M3 18.5V5a3 3 0 0 1 3-3h14a1 1 0 0 1 1 1v18a1 1 0 0 1-1 1H6.5A3.5 3.5 0 0 1 3 18.5zM19 20v-3H6.5a1.5 1.5 0 0 0 0 3H19zM10 4H6a1 1 0 0 0-1 1v10.337A3.486 3.486 0 0 1 6.5 15H19V4h-2v8l-3.5-2-3.5 2V4z"/>
  </symbol>

  <symbol viewBox="0 0 24 24" id="shield-cross">
    <path fill="none" d="M0 0h24v24H0z"/>
    <path fill="currentColor" d="M3.783 2.826L12 1l8.217 1.826a1 1 0 0 1 .783.976v9.987a6 6 0 0 1-2.672 4.992L12 23l-6.328-4.219A6 6 0 0 1 3 13.79V3.802a1 1 0 0 1 .783-.976zM5 4.604v9.185a4 4 0 0 0 1.781 3.328L12 20.597l5.219-3.48A4 4 0 0 0 19 13.79V4.604L12 3.05 5 4.604zM11 10V7h2v3h3v2h-3v3h-2v-3H8v-2h3z"/>
  </symbol>

  <symbol viewBox="0 0 24 24" id="search-eye">
    <path fill="none" d="M0 0h24v24H0z"/>
    <path fill="currentColor" d="M18.031 16.617l4.283 4.282-1.415 1.415-4.282-4.283A8.96 8.96 0 0 1 11 20c-4.968 0-9-4.032-9-9s4.032-9 9-9 9 4.032 9 9a8.96 8.96 0 0 1-1.969 5.617zm-2.006-.742A6.977 6.977 0 0 0 18 11c0-3.868-3.133-7-7-7-3.868 0-7 3.132-7 7 0 3.867 3.132 7 7 7a6.977 6.977 0 0 0 4.875-1.975l.15-.15zm-3.847-8.699a2 2 0 1 0 2.646 2.646 4 4 0 1 1-2.646-2.646z"/>
  </symbol>

  <symbol viewBox="0 0 24 24" id="pulse">
    <path fill="none" d="M0 0H24V24H0z"/>
    <path fill="currentColor" d="M9 7.539L15 21.539 18.659 13 23 13 23 11 17.341 11 15 16.461 9 2.461 5.341 11 1 11 1 13 6.659 13z"/>
  </symbol>

  <symbol viewBox="0 0 24 24" id="focus">
    <path fill="none" d="M0 0H24V24H0z"/>
    <path fill="currentColor" d="M12 20C16.4183 20 20 16.4183 20 12C20 7.58172 16.4183 4 12 4C7.58172 4 4 7.58172 4 12C4 16.4183 7.58172 20 12 20ZM12 22C6.47715 22 2 17.5228 2 12C2 6.47715 6.47715 2 12 2C17.5228 2 22 6.47715 22 12C22 17.5228 17.5228 22 12 22ZM12 16C14.2091 16 16 14.2091 16 12C16 9.79086 14.2091 8 12 8C9.79086 8 8 9.79086 8 12C8 14.2091 9.79086 16 12 16ZM12 18C8.68629 18 6 15.3137 6 12C6 8.68629 8.68629 6 12 6C15.3137 6 18 8.68629 18 12C18 15.3137 15.3137 18 12 18ZM12 14C10.8954 14 10 13.1046 10 12C10 10.8954 10.8954 10 12 10C13.1046 10 14 10.8954 14 12C14 13.1046 13.1046 14 12 14Z"></path>
  </symbol>

  <symbol viewBox="0 0 24 24" id="focus">
    <path fill="none" d="M0 0h24v24H0z"/>
    <path d="M12 20C16.4183 20 20 16.4183 20 12C20 7.58172 16.4183 4 12 4C7.58172 4 4 7.58172 4 12C4 16.4183 7.58172 20 12 20ZM12 22C6.47715 22 2 17.5228 2 12C2 6.47715 6.47715 2 12 2C17.5228 2 22 6.47715 22 12C22 17.5228 17.5228 22 12 22ZM12 16C14.2091 16 16 14.2091 16 12C16 9.79086 14.2091 8 12 8C9.79086 8 8 9.79086 8 12C8 14.2091 9.79086 16 12 16ZM12 18C8.68629 18 6 15.3137 6 12C6 8.68629 8.68629 6 12 6C15.3137 6 18 8.68629 18 12C18 15.3137 15.3137 18 12 18ZM12 14C10.8954 14 10 13.1046 10 12C10 10.8954 10.8954 10 12 10C13.1046 10 14 10.8954 14 12C14 13.1046 13.1046 14 12 14Z" />
  </symbol>

  <symbol viewBox="0 0 24 24" id="survey">
    <path fill="none" d="M0 0h24v24H0z"/>
    <path fill="currentColor" d="M17 2V4H20.0066C20.5552 4 21 4.44495 21 4.9934V21.0066C21 21.5552 20.5551 22 20.0066 22H3.9934C3.44476 22 3 21.5551 3 21.0066V4.9934C3 4.44476 3.44495 4 3.9934 4H7V2H17ZM7 6H5V20H19V6H17V8H7V6ZM9 16V18H7V16H9ZM9 13V15H7V13H9ZM9 10V12H7V10H9ZM15 4H9V6H15V4Z"></path>
  </symbol>

  <symbol viewBox="0 0 24 24" id="chevron">
    <path fill="none" d="M0 0h24v24H0z"/>
    <path fill="currentColor" d="M11.9997 13.1714L16.9495 8.22168L18.3637 9.63589L11.9997 15.9999L5.63574 9.63589L7.04996 8.22168L11.9997 13.1714Z"></path>
  </symbol>

  <symbol viewBox="0 0 24 24" id="close">
    <path fill="none" d="M0 0h24v24H0z"/>
    <path fill="currentColor" d="M12.0007 10.5865L16.9504 5.63672L18.3646 7.05093L13.4149 12.0007L18.3646 16.9504L16.9504 18.3646L12.0007 13.4149L7.05093 18.3646L5.63672 16.9504L10.5865 12.0007L5.63672 7.05093L7.05093 5.63672L12.0007 10.5865Z"></path>
  </symbol>
</svg>
